# xmcd
#
# Track frame offsets:
#  183
#  12710
#  26255
#  41210
#  55050
#  64830
#  80893
#  94508
#  109143
#  120685
#  134383
#  144750
#  162308
#  195608
#  209230
#  222703
#  239478
#  254113
#  265018
#  277373
#
# Disc length: 3957 seconds
#
# Revision: 5
# Processed by: cddbd v1.5.1PL2 Copyright (c) Steve Scherf et al.
# Submitted via: Collectorz.com_Music_Collector 6.9
#
DISCID=430f7314
DTITLE=Various Artist - It Don't Mean A Thing If It Ain't Got That Swing: 20 Big Band Classics
DYEAR=1992
DGENRE=Big Band - Swing
TTITLE0=Glenn Miller - Moonlight Serenade
TTITLE1=Tommy Dorsey - Taking A Chance On Love
TTITLE2=Count Basie - Jumpin' At The Woodside
TTITLE3=Duke Ellington - Take The 'A' Train
TTITLE4=Les Brown - September Song
TTITLE5=Woody Herman - Blowin' Up A Storm
TTITLE6=Benny Goodman - Jersey Bounce
TTITLE7=Glenn Miller - Pennsylvania 6-5000
TTITLE8=Count Basie - Red Bank Boogie
TTITLE9=Tommy Dorsey - Marie
TTITLE10=Les Brown - Love Me Or Leave Me
TTITLE11=Count Basie - Lester Leaps In
TTITLE12=Woody Herman - Caledonia
TTITLE13=Glenn Miller - Little Brown Jug
TTITLE14=Charlie Barnet - Skyliner
TTITLE15=Gene Krupa - I'll Never Be The Same
TTITLE16=Tommy Dorsey - On The Sunny Side Of The Street
TTITLE17=Duke Ellington - Perdido
TTITLE18=Les Brown - I'm Forever Blowing Bubbles
TTITLE19=Count Basie - Blue And Sentimental
EXTD=
EXTT0=
EXTT1=
EXTT2=
EXTT3=
EXTT4=
EXTT5=
EXTT6=
EXTT7=
EXTT8=
EXTT9=
EXTT10=
EXTT11=
EXTT12=
EXTT13=
EXTT14=
EXTT15=
EXTT16=
EXTT17=
EXTT18=
EXTT19=
PLAYORDER=
